/vscmnt/brussel_pixiu_data/_data_brussel/112/vsc11236/PredSimResults/SUBJ06opt3D/weighted-LRposFixed/trackIG/worker_04.mot
version=1
nRows=10
nColumns=50
inDegrees=yes
endheader
                time	         pelvis_tilt	         pelvis_list	     pelvis_rotation	           pelvis_tx	           pelvis_ty	           pelvis_tz	       hip_flexion_r	     hip_adduction_r	      hip_rotation_r	        knee_angle_r	       ankle_angle_r	         mtp_angle_r	       hip_flexion_l	     hip_adduction_l	      hip_rotation_l	        knee_angle_l	       ankle_angle_l	         mtp_angle_l	    lumbar_extension	      lumbar_bending	     lumbar_rotation	 ercspn_r/activation	 intobl_r/activation	 extobl_r/activation	    abd_r/activation	    add_r/activation	hamstrings_r/activation	bifemsh_r/activation	glut_max_r/activation	iliopsoas_r/activation	rect_fem_r/activation	  vasti_r/activation	gastroc_r/activation	 soleus_r/activation	tib_ant_r/activation	 ercspn_l/activation	 intobl_l/activation	 extobl_l/activation	    abd_l/activation	    add_l/activation	hamstrings_l/activation	bifemsh_l/activation	glut_max_l/activation	iliopsoas_l/activation	rect_fem_l/activation	  vasti_l/activation	gastroc_l/activation	 soleus_l/activation	tib_ant_l/activation	
          0.62040886	         -6.80089085	          0.72075347	         -3.87372620	          0.68865384	          0.92808478	          0.00985194	         -8.86673519	         -0.01277483	         -6.27158076	        -11.78423761	          8.93315424	         34.09412695	         33.30253630	         -0.73874276	         -6.08628894	         -8.62939096	          0.14344738	          0.22491790	         -5.12267978	          0.37445229	          8.45782969	          0.13282702	          0.00999999	          0.00999999	          0.09425643	          0.01000001	          0.01000000	          0.28332768	          0.01536793	          0.69481105	          0.01000071	          0.00999999	          0.24954549	          0.40430751	          0.02121022	          0.18533302	          0.13275581	          0.01000000	          0.00999999	          0.35581520	          0.07133852	          0.10645150	          0.02384849	          0.11589811	          0.01456372	          0.01000001	          0.01000001	          0.00999999	          0.50096392	
          0.63281704	         -6.90307413	          0.64977873	         -3.89034334	          0.70566331	          0.92620898	          0.00895283	         -9.18248923	         -0.12405585	         -6.67699884	        -12.87870092	          7.96358765	         36.06376606	         33.49460040	         -0.61155835	         -6.08172969	        -10.50404245	         -0.15373913	          0.21331402	         -4.76888692	          0.02599889	          8.95251916	          0.17722550	          0.00999999	          0.00999999	          0.07810425	          0.01000012	          0.01000013	          0.23800170	          0.01488869	          0.68963417	          0.01000017	          0.01000000	          0.21241902	          0.38080276	          0.01757555	          0.17443319	          0.11000620	          0.01000000	          0.00999999	          0.42829815	          0.07397311	          0.08820952	          0.11550464	          0.09603731	          0.01206802	          0.01000000	          0.01749596	          0.01757554	          0.51837459	
          0.64522522	         -6.97757917	          0.63954585	         -3.89929576	          0.72317020	          0.92454141	          0.00802178	         -9.34719105	         -0.33810567	         -7.07114000	        -14.32815628	          6.85069535	         38.10112924	         33.44429184	         -0.51295277	         -5.87310835	        -12.20962706	         -0.41220816	          0.19240297	         -4.38276731	         -0.39523974	          9.40117331	          0.16398984	          0.00999999	          0.01000000	          0.06471997	          0.01000009	          0.01010114	          0.21899884	          0.01233730	          0.67348980	          0.01000003	          0.00999999	          0.17601798	          0.35196848	          0.01456373	          0.14454159	          0.09115507	          0.01000000	          0.02961259	          0.35490314	          0.07691745	          0.07309356	          0.12485839	          0.07957994	          0.01000000	          0.01000001	          0.01449778	          0.01456372	          0.56743358	
          0.65763339	         -7.02836574	          0.67043201	         -3.88744342	          0.74091015	          0.92315225	          0.00695603	         -9.28994378	         -0.64401542	         -7.46791284	        -16.21645780	          5.55183424	         40.19538088	         33.23411764	         -0.39406109	         -5.80246217	        -13.67762559	         -0.77652627	          0.17713733	         -3.99716583	         -0.85361237	          9.79217514	          0.17001018	          0.00999999	          0.00999999	          0.05362927	          0.01000002	          0.01000006	          0.19753926	          0.01022313	          0.60699512	          0.01000002	          0.00999999	          0.14585478	          0.30958541	          0.01206802	          0.15209454	          0.07553434	          0.01000000	          0.07682179	          0.31555958	          0.08120567	          0.06056794	          0.13516440	          0.06594278	          0.01000000	          0.05340093	          0.01201338	          0.01206802	          0.61998722	
          0.67004157	         -7.05778346	          0.73582465	         -3.85446504	          0.75863905	          0.92216323	          0.00576811	         -8.96031671	         -1.04035638	         -7.87449102	        -18.58432331	          4.00360371	         42.29022061	         32.93739635	         -0.25261653	         -5.85956423	        -15.03094095	         -1.04896696	          0.14055370	         -3.63836306	         -1.34251016	         10.11980249	          0.20866258	          0.00999999	          0.00999999	          0.04443913	          0.01000002	          0.01000015	          0.17400378	          0.00999999	          0.50297784	          0.01000001	          0.00999999	          0.12086048	          0.25653353	          0.00999999	          0.14990601	          0.06259045	          0.01000000	          0.13466752	          0.28202371	          0.07773694	          0.05018877	          0.17079998	          0.05464254	          0.00999999	          0.12357668	          0.00999999	          0.00999999	          0.66076553	
          0.68244975	         -7.06892293	          0.84294197	         -3.80391727	          0.77613323	          0.92176522	          0.00447442	         -8.32557846	         -1.53986562	         -8.29033594	        -21.43419724	          2.16162788	         44.19406676	         32.58797091	         -0.06907898	         -5.96984307	        -16.37184890	         -0.83616356	          0.11869724	         -3.32372965	         -1.86771697	         10.38370718	          0.25070025	          0.00999999	          0.00999999	          0.03682385	          0.01000071	          0.08226024	          0.16731031	          0.00999999	          0.41678539	          0.01000000	          0.00999999	          0.10014931	          0.21257284	          0.00999999	          0.14328023	          0.05186468	          0.01000000	          0.19844682	          0.23391718	          0.07802460	          0.04158821	          0.14391466	          0.04527876	          0.00999999	          0.23058160	          0.01000000	          0.00999999	          0.61281755	
          0.69485792	         -7.06712485	          0.98664828	         -3.74316426	          0.79319963	          0.92215975	          0.00309890	         -7.36542664	         -2.14098838	         -8.70953932	        -24.74700891	          0.06183998	         45.49689161	         32.15013830	          0.17412947	         -6.03249023	        -17.63796328	          0.04884193	          0.24237228	         -3.06450650	         -2.41906572	         10.59070651	          0.27647659	          0.00999999	          0.01000000	          0.03051356	          0.13076156	          0.12277155	          0.14924024	          0.00999999	          0.34536325	          0.01000000	          0.00999999	          0.08298729	          0.17614544	          0.00999999	          0.13107885	          0.04297693	          0.01000000	          0.23736987	          0.21398775	          0.07338278	          0.03446148	          0.11925290	          0.03751960	          0.00999999	          0.31066681	          0.01000000	          0.00999999	          0.50971336	
          0.70726610	         -7.05756382	          1.13657871	         -3.67131577	          0.80972450	          0.92347226	          0.00168010	         -6.08045189	         -2.81395201	         -9.14075307	        -28.50195893	         -2.12980580	         45.59001317	         31.54044570	          0.45908991	         -6.03054791	        -18.59683192	          1.22358916	          0.58735083	         -2.86665233	         -2.96121611	         10.74069121	          0.28049470	          0.00999999	          0.01000000	          0.02528462	          0.20509835	          0.14063500	          0.12366595	          0.00999999	          0.28618032	          0.01000000	          0.00999999	          0.06876623	          0.14596040	          0.00999999	          0.12982642	          0.03561222	          0.01000000	          0.25110014	          0.20294205	          0.07392337	          0.02855602	          0.09881721	          0.03109008	          0.00999999	          0.33233600	          0.01000000	          0.00999999	          0.42236670	
          0.71967428	         -7.04301467	          1.25837391	         -3.58622149	          0.82570375	          0.92565434	          0.00026697	         -4.51732634	         -3.51894186	         -9.57346990	        -32.55121728	         -4.53164921	         44.52649407	         30.71099160	          0.74727126	         -5.99279250	        -19.09307071	          2.28646315	          1.05975956	         -2.72722071	         -3.45841060	         10.82994908	          0.27701996	          0.00999999	          0.01000000	          0.02095174	          0.23031307	          0.16473568	          0.12969711	          0.00999999	          0.23713923	          0.01000000	          0.00999999	          0.05698215	          0.12094799	          0.01000000	          0.12638111	          0.02950955	          0.01000000	          0.24853003	          0.18279645	          0.07683793	          0.02366254	          0.08188348	          0.02576235	          0.00999999	          0.32099754	          0.01000000	          0.00999999	          0.35249662	
          0.73208246	         -7.02363791	          1.32719981	         -3.48592642	          0.84116213	          0.92852108	         -0.00110829	         -2.73996205	         -4.22197110	         -9.99285405	        -36.75248808	         -7.00816572	         42.12803411	         29.68482150	          1.00593478	         -5.92536740	        -19.15384298	          3.12232888	          1.55843264	         -2.64352770	         -3.88488319	         10.85532875	          0.27931289	          0.01000000	          0.01000000	          0.01736136	          0.22818565	          0.17393179	          0.10747171	          0.00999999	          0.19650203	          0.01000000	          0.00999999	          0.04721745	          0.10022183	          0.08679968	          0.10472400	          0.02445267	          0.01000000	          0.23659469	          0.16776156	          0.07917265	          0.01960763	          0.06785158	          0.02134760	          0.00999999	          0.28470603	          0.01000000	          0.00999999	          0.31097008	
